# xmcd CD database file
#
# Track frame offsets:
#	150
#	17790
#	45675
#	53691
#	70547
#	89230
#	106378
#	124613
#	136579
#	155721
#	171436
#	178952
#	190590
#	230604
#	242113
#	252153
#	262808
#	284268
#	289689
#	307844
#
# Disc length: 4323 seconds
#
# Revision: 1
# Processed by: cddbd v1.5.2PL0 Copyright (c) Steve Scherf et al.
# Submitted via: CDex 1.40Release
#
DISCID=1810e114
DTITLE=Hadara Levin Areddy - King O.
DYEAR=2002
DGENRE=Blues
TTITLE0=It Gets You
TTITLE1=Illusion
TTITLE2=Holy Wine
TTITLE3=What The Fuck
TTITLE4=Before You Go
TTITLE5=Satisfaction
TTITLE6=Happy Bosa
TTITLE7=Too Far
TTITLE8=Ain't No Use
TTITLE9=Stairway
TTITLE10=לא התכוונתי
TTITLE11=Free
TTITLE12=כמה זמן
TTITLE13=Little Angel
TTITLE14=You Showed Up
TTITLE15=Here's Real
TTITLE16=אני רוצה אותך
TTITLE17=Paper Town
TTITLE18=Good Song
TTITLE19=What The Fuck (Studio)
EXTD=YEAR: 2002 ID3G: 0
EXTT0=
EXTT1=
EXTT2=
EXTT3=
EXTT4=
EXTT5=
EXTT6=
EXTT7=
EXTT8=
EXTT9=
EXTT10=
EXTT11=
EXTT12=
EXTT13=
EXTT14=
EXTT15=
EXTT16=
EXTT17=
EXTT18=
EXTT19=
PLAYORDER=
